<svg version="1.1" id="Layer_1" xmlns="http://www.w3.org/2000/svg" xmlns:xlink="http://www.w3.org/1999/xlink" x="0px" y="0px"
	 width="100%" viewBox="0 0 336 496" enable-background="new 0 0 336 336" xml:space="preserve">
<path fill="#000000" opacity="1.000000" stroke="none" 
	d="
M275.867706,287.141174 
	C284.680603,297.609314 293.121277,307.931122 301.918884,317.939148 
	C304.843140,321.265808 304.746704,323.535065 301.993347,326.836121 
	C272.442657,362.265045 242.940720,397.735260 213.578323,433.320282 
	C199.908035,449.887573 185.665237,466.002686 173.023804,483.394012 
	C170.103455,487.411621 168.399597,485.594666 166.229218,482.998352 
	C147.956009,461.139191 129.676941,439.284882 111.368454,417.455292 
	C86.958008,388.350250 62.551483,359.241821 38.071278,330.195496 
	C31.748543,322.693451 31.622334,322.795502 37.656872,315.480988 
	C50.802044,299.547607 63.871017,283.550079 77.166771,267.743317 
	C79.689919,264.743652 79.281326,262.918060 76.880951,260.203522 
	C63.196857,244.728531 49.731976,229.059784 36.060795,213.573242 
	C33.471275,210.639862 33.383511,208.496262 35.944313,205.418091 
	C76.535553,156.625534 117.026352,107.749420 157.540482,58.892708 
	C161.668625,53.914494 165.324890,48.520596 170.320190,44.075466 
	C173.962997,45.981792 176.141693,49.191200 178.610550,52.029243 
	C185.497940,59.946613 192.210419,68.016487 199.122681,75.911705 
	C201.309402,78.409424 201.627045,80.336044 199.602936,83.306862 
	C191.980652,94.494247 192.362564,101.822899 201.095764,112.116920 
	C206.477829,118.460846 212.445908,124.289337 217.786697,130.697952 
	C219.988907,133.340485 219.983231,134.901169 217.758301,137.391724 
	C213.323273,142.356216 208.993484,147.452103 205.063614,152.818405 
	C202.035400,156.953491 199.673599,156.145966 196.887207,152.855057 
	C189.244095,143.827972 181.576462,134.821411 173.878586,125.841003 
	C172.065948,123.726357 170.627640,121.223862 167.611176,119.483101 
	C160.807022,127.632103 153.996170,135.749130 147.228622,143.902100 
	C129.995361,164.663223 112.867088,185.512650 95.472572,206.137634 
	C92.686356,209.441345 92.715820,211.484177 95.595993,214.486252 
	C100.069763,219.149338 104.159309,224.181046 108.763962,229.460342 
	C117.288383,219.147583 125.531593,209.177460 133.772110,199.205139 
	C143.747559,187.133240 153.705093,175.046494 163.703491,162.993652 
	C167.172501,158.811844 168.052673,158.770096 171.784363,163.079056 
	C176.581894,168.618683 181.164581,174.343857 185.914230,179.925797 
	C187.828735,182.175812 189.395325,184.787674 191.947891,186.376465 
	C194.117264,185.979248 195.003998,184.255539 196.140427,182.882874 
	C211.011429,164.920319 225.896713,146.969330 240.684311,128.938263 
	C243.238693,125.823601 245.266571,125.044617 248.087555,128.652466 
	C251.778534,133.373032 255.624359,138.001602 259.740265,142.351151 
	C262.732697,145.513428 262.540070,148.303711 260.309326,151.656891 
	C257.250641,156.254608 255.098450,161.196899 253.993668,166.732269 
	C253.082352,171.298340 253.896454,175.259003 255.737885,179.291061 
	C261.389832,191.666763 271.070618,200.982941 279.772675,211.039673 
	C282.606232,214.314362 285.488922,217.555237 288.502930,220.662430 
	C291.078827,223.317993 291.014893,225.435471 288.520538,228.328812 
	C279.494995,238.797958 270.862244,249.606171 261.815186,260.056091 
	C258.555878,263.820801 257.890900,266.563721 261.738068,270.489716 
	C266.737091,275.591217 271.035004,281.379700 275.867706,287.141174 
M259.454926,362.971954 
	C269.088806,351.268921 278.541840,339.409546 288.451721,327.945038 
	C292.071228,323.757690 291.751740,320.907257 288.318146,316.899292 
	C275.312225,301.717987 262.580475,286.301422 249.779160,270.945404 
	C245.033325,265.252502 245.131363,265.265106 249.726547,259.748718 
	C257.827911,250.023315 265.733398,240.131744 273.975647,230.528381 
	C276.769714,227.272888 276.448303,225.191681 273.638062,222.131882 
	C266.880981,214.774704 260.074982,207.382370 254.122467,199.383743 
	C243.233231,184.751465 237.146179,169.106033 247.263596,151.285538 
	C250.564240,145.471863 250.431656,145.287155 244.552856,140.941330 
	C242.416809,141.717331 241.324036,143.645416 239.959686,145.283707 
	C225.252014,162.944260 210.489334,180.559494 195.878738,198.300003 
	C193.198120,201.554855 191.105270,201.276169 188.703812,198.314362 
	C187.864639,197.279404 187.039886,196.230240 186.154495,195.235687 
	C180.104568,188.439850 174.673157,181.076248 167.614136,174.386993 
	C163.328644,179.410294 159.318970,184.033676 155.392395,188.726578 
	C140.965500,205.969147 126.546745,223.218643 112.177666,240.509338 
	C110.055191,243.063354 108.318306,243.738892 105.833984,240.828781 
	C98.046913,231.707108 90.116837,222.707031 82.199074,213.697723 
	C80.210297,211.434784 80.217514,209.558975 82.241585,207.161774 
	C91.481575,196.218506 100.558052,185.137207 109.697319,174.108841 
	C127.870285,152.179474 146.084610,130.284119 164.172302,108.284653 
	C166.477539,105.480850 168.236694,104.710205 170.820618,107.765556 
	C173.613052,111.067459 176.578964,114.224762 179.516174,117.401711 
	C186.710571,125.183342 192.826965,133.954712 200.695374,141.073883 
	C207.111008,136.054459 207.202682,135.081268 202.015869,129.640121 
	C200.751572,128.313843 199.448105,127.024773 198.157745,125.723457 
	C185.998001,113.460487 179.224106,99.913048 187.817871,82.656815 
	C188.583374,81.119682 188.946686,79.470734 187.666260,77.964760 
	C182.204117,71.540504 176.729233,65.127098 171.012680,58.420769 
	C169.397736,60.175800 168.235916,61.334187 167.190826,62.589752 
	C151.528503,81.406548 135.864426,100.221939 120.235054,119.066093 
	C97.058716,147.009552 73.954132,175.012695 50.714703,202.903503 
	C45.479477,209.186539 45.227264,209.311752 50.770275,215.667953 
	C63.688995,230.481964 76.633659,245.273697 89.650391,260.001495 
	C91.759972,262.388397 92.878487,264.259521 90.373123,267.248077 
	C77.217606,282.940765 64.326935,298.855896 51.131023,314.514099 
	C45.430813,321.277893 45.332832,323.431213 51.097473,330.194855 
	C61.896599,342.865479 72.310211,355.869171 83.267036,368.399506 
	C92.376152,378.816803 100.281036,390.125244 111.528015,398.930695 
	C119.395401,405.090210 127.593735,412.017334 132.743393,421.219421 
	C138.858597,432.146851 147.746231,440.619171 156.819214,448.950958 
	C158.566559,450.555542 160.377686,452.107422 163.024445,451.003876 
	C167.295700,449.222992 171.061310,450.425446 174.893967,452.577698 
	C180.789230,455.888153 182.633972,455.477966 186.859360,450.394196 
	C210.918900,421.446869 234.953430,392.478790 259.454926,362.971954 
z"/>
<path fill="#000000" opacity="1.000000" stroke="none" 
	d="
M193.955841,398.952087 
	C186.759766,407.500183 179.636169,415.653748 172.893997,424.111328 
	C169.927628,427.832458 167.951981,427.412354 165.134705,424.100494 
	C149.927231,406.223541 134.621948,388.429565 119.306931,370.644440 
	C106.922241,356.262268 94.524811,341.890259 82.010620,327.621094 
	C79.842598,325.149048 79.614204,323.359009 81.838379,320.799591 
	C90.027550,311.376190 98.106102,301.854401 106.093185,292.258881 
	C108.967873,288.805267 111.235817,288.671600 113.816345,292.507782 
	C118.866364,300.015076 127.258194,303.765106 133.609207,309.824005 
	C134.328354,310.510071 135.447464,311.010345 135.775253,311.836975 
	C139.020889,320.021820 147.490173,323.373444 152.414261,329.981995 
	C153.953964,332.048401 156.066620,332.615295 158.072083,331.058899 
	C160.769409,328.965576 163.495285,329.129425 166.560852,329.761932 
	C169.502304,330.368835 172.563248,330.430237 175.415817,329.203461 
	C178.263931,327.978577 179.863144,328.467010 180.037933,331.870270 
	C180.159195,334.231781 180.496780,336.730072 183.199051,337.565521 
	C186.037109,338.442963 187.308701,335.968903 188.898819,334.375519 
	C194.788803,328.473419 197.449585,320.343689 202.903305,314.084015 
	C205.132904,311.524933 203.101013,306.591675 207.408432,304.749695 
	C208.279205,304.377350 208.910156,303.420959 209.786270,303.088165 
	C215.344345,300.976807 220.172455,297.803436 223.483459,292.844452 
	C226.353851,288.545349 228.584229,289.707672 231.658829,292.678314 
	C237.895981,298.704620 243.582901,305.132782 248.469803,312.305969 
	C250.241669,314.906799 252.397858,317.265503 254.533478,319.592651 
	C256.283661,321.499786 256.631134,323.249359 254.805252,325.267914 
	C253.914352,326.252808 253.254288,327.452606 252.332352,328.402344 
	C245.628342,335.308563 241.345840,343.840820 236.555649,352.012329 
	C235.014755,354.640961 233.523941,357.140289 230.953003,358.876373 
	C225.989868,362.227905 223.883224,368.160889 219.523956,371.932190 
	C210.170349,380.024261 202.322388,389.476105 193.955841,398.952087 
M169.098755,371.107452 
	C167.227005,370.210297 166.024002,368.577698 164.732559,367.064484 
	C147.645508,347.043335 130.579651,327.004028 113.480042,306.993591 
	C112.432205,305.767426 111.677856,304.139709 109.168457,303.582581 
	C104.638039,308.873230 100.010208,314.492340 95.132828,319.885803 
	C92.571274,322.718445 92.404175,324.709106 95.114784,327.820129 
	C112.623489,347.915497 129.888947,368.222778 147.244232,388.451904 
	C154.371536,396.759430 161.523849,405.045441 168.904800,413.620087 
	C170.353302,412.062897 171.526077,410.921600 172.563614,409.668396 
	C183.928467,395.941406 195.258560,382.185669 206.625565,368.460480 
	C217.992371,354.735535 229.416977,341.058319 240.740005,327.297424 
	C242.105927,325.637451 244.874451,323.875397 242.857788,321.346985 
	C238.044540,315.312256 232.889740,309.549927 227.726044,303.505798 
	C226.748367,304.569275 226.285980,305.028564 225.872543,305.528320 
	C208.675293,326.314697 191.489838,347.110870 174.273148,367.881134 
	C173.056198,369.349274 172.271606,371.513153 169.098755,371.107452 
z"/>
<path fill="#000000" opacity="1.000000" stroke="none" 
	d="
M130.771179,271.249847 
	C127.201286,268.274963 126.970245,265.828735 130.006531,262.277344 
	C141.476608,248.861420 152.692184,235.224274 163.808105,221.511917 
	C166.362823,218.360504 168.141479,218.115860 170.821320,221.185593 
	C183.306152,235.486816 195.949371,249.649933 208.411224,263.970978 
	C211.961670,268.051086 211.549057,270.993134 207.137985,274.520691 
	C203.425690,277.489471 201.481628,281.842682 198.228577,285.184296 
	C196.436844,287.024811 197.149139,289.910095 197.385483,292.415222 
	C197.920578,298.087219 197.109436,298.957306 191.546097,299.382050 
	C190.250946,299.480896 188.794617,299.750397 187.748795,300.446564 
	C182.677139,303.822784 177.431656,307.030121 172.798859,310.948792 
	C167.575516,315.367035 167.808563,315.687195 163.466476,310.137604 
	C153.095947,296.883118 141.965836,284.268005 130.771179,271.249847 
M184.205185,251.289978 
	C178.814743,245.052124 173.424286,238.814285 167.727097,232.221466 
	C160.122192,241.341309 152.954605,249.839905 145.896912,258.428802 
	C139.455338,266.267914 139.467194,266.345612 145.932083,273.941620 
	C153.233063,282.519989 160.616745,291.027954 167.924042,299.519592 
	C168.828262,299.060028 169.387543,298.947144 169.673615,298.605499 
	C178.105347,288.535461 186.490067,278.426025 194.935532,268.367554 
	C196.631088,266.348145 195.940598,264.909515 194.400330,263.200226 
	C191.061401,259.494873 187.895309,255.633774 184.205185,251.289978 
z"/>
<path fill="#000000" opacity="1.000000" stroke="none" 
	d="
M236.252625,210.764221 
	C239.047455,213.877716 241.579086,216.752335 244.176910,219.565842 
	C245.582901,221.088623 246.187531,222.543259 244.658630,224.376221 
	C239.243622,230.868179 233.873093,237.397247 228.732132,243.614243 
	C226.288895,243.686295 225.624512,242.155197 224.702881,241.060135 
	C216.339615,231.123260 208.083176,221.095078 199.615128,211.248703 
	C197.151184,208.383698 196.654434,206.414413 199.507156,203.270554 
	C208.605118,193.244125 218.078644,192.457336 227.965973,201.632187 
	C230.881775,204.337906 233.345871,207.530441 236.252625,210.764221 
M222.278687,223.223618 
	C224.100540,225.095795 225.156784,227.678513 227.890778,229.237442 
	C229.754807,226.505051 234.931824,225.020096 232.089355,220.680344 
	C228.660400,215.445129 224.143173,210.911682 218.958099,207.214691 
	C216.055695,205.145218 213.221436,204.830704 210.169281,208.161270 
	C213.464844,213.430008 217.810272,217.933365 222.278687,223.223618 
z"/>
</svg>